<?xml version="1.0" encoding="UTF-8"?>
<svg width="16px" height="16px" viewBox="0 0 16 16" version="1.1" xmlns="http://www.w3.org/2000/svg" xmlns:xlink="http://www.w3.org/1999/xlink">
    <!-- Generator: Sketch 52.3 (67297) - http://www.bohemiancoding.com/sketch -->
    <title>a/icon_like</title>
    <desc>Created with Sketch.</desc>
    <defs>
        <path d="M8,1.90671538 C8.82037401,0.745477858 10.0921832,0 11.52,0 C13.9942357,0 16,2.23857625 16,5 C16,7.76142375 13.9942357,10 11.52,10 C10.0921832,10 8.82037401,9.25452214 8,8.09328462 C7.17962599,9.25452214 5.90781682,10 4.48,10 C2.00576432,10 0,7.76142375 0,5 C0,2.23857625 2.00576432,0 4.48,0 C5.90781682,0 7.17962599,0.745477858 8,1.90671538 Z" id="path-1"></path>
        <path d="M8,14 C10.7614237,14 16,9 16,5 C16,5 0,5 0,5 C0,9 5.23857625,14 8,14 Z" id="path-3"></path>
    </defs>
    <g id="a/icon_like" stroke="none" stroke-width="1" fill="none" fill-rule="evenodd">
        <g id="Group-Copy" transform="translate(0.000000, 1.000000)">
            <mask id="mask-2" fill="white">
                <use xlink:href="#path-1"></use>
            </mask>
            <use id="Combined-Shape" fill="#FB5F8A" xlink:href="#path-1"></use>
            <g id="_/mandy" mask="url(#mask-2)">
                <rect id="Color" fill="#FC719F" x="0" y="0" width="16" height="16"></rect>
                <rect id="Color-Copy" fill="#ED5267" x="0" y="0" width="16" height="16"></rect>
            </g>
            <mask id="mask-4" fill="white">
                <use xlink:href="#path-3"></use>
            </mask>
            <use id="Oval-Copy" fill="#FB5F8A" xlink:href="#path-3"></use>
            <g id="_/mandy" mask="url(#mask-4)">
                <rect id="Color" fill="#FC719F" x="0" y="0" width="16" height="16"></rect>
                <rect id="Color-Copy" fill="#ED5267" x="0" y="0" width="16" height="16"></rect>
            </g>
        </g>
    </g>
</svg>