<?xml version="1.0" encoding="UTF-8"?>
<svg width="14px" height="16px" viewBox="0 0 14 16" version="1.1" xmlns="http://www.w3.org/2000/svg" xmlns:xlink="http://www.w3.org/1999/xlink">
    <!-- Generator: Sketch 52.3 (67297) - http://www.bohemiancoding.com/sketch -->
    <title>notifications</title>
    <desc>Created with Sketch.</desc>
    <g id="Page-1" stroke="none" stroke-width="1" fill="none" fill-rule="evenodd" opacity="0.979999959">
        <g id="00_01_00_Synth_User_Profile" transform="translate(-1223.000000, -28.000000)">
            <g id="header">
                <g id="profile-section" transform="translate(1020.000000, 20.000000)">
                    <g id="icons" transform="translate(194.000000, 0.000000)">
                        <g id="notifications">
                            <rect id="Rectangle-2-Copy-3" fill="#EFF3F6" opacity="0" x="0" y="0" width="32" height="32"></rect>
                            <rect id="Rectangle-3" x="8" y="8" width="16" height="16"></rect>
                            <path d="M16,23 C15.6400193,23 15.3529412,22.7211241 15.3529412,22.4 L14.3529412,22.4 L14.3529412,23.4 L17.6470588,23.4 L17.6470588,22.4 L16.6470588,22.4 C16.6470588,22.7211242 16.3599807,23 16,23 Z M10,21.2227283 L9.69678569,21.5172794 L9,20.8 L10,20.8 L10,21.2227283 Z M10.6410439,20.6 L21.3589561,20.6 L20.3529412,19.6227283 L20.3529412,14.8 C20.3529412,12.8517697 18.9625488,11.1676983 17.0109944,10.7185202 L16.2352941,10.5399817 L16.2352941,9.2 C16.2352941,9.09487587 16.1376278,9 16,9 C15.8623722,9 15.7647059,9.09487587 15.7647059,9.2 L15.7647059,10.5399817 L14.9890056,10.7185202 C13.0374512,11.1676983 11.6470588,12.8517696 11.6470588,14.8 L11.6470588,19.6227283 L10.6410439,20.6 Z M22,21.2227283 L22,20.8 L23,20.8 L22.3032143,21.5172794 L22,21.2227283 Z" id="Shape" stroke="#3E4056" stroke-width="2"></path>
                        </g>
                    </g>
                </g>
            </g>
        </g>
    </g>
</svg>