<?xml version="1.0" encoding="UTF-8"?>
<svg width="16px" height="13px" viewBox="0 0 16 13" version="1.1" xmlns="http://www.w3.org/2000/svg" xmlns:xlink="http://www.w3.org/1999/xlink">
    <!-- Generator: Sketch 52.3 (67297) - http://www.bohemiancoding.com/sketch -->
    <title>medium</title>
    <desc>Created with Sketch.</desc>
    <g id="Page-1" stroke="none" stroke-width="1" fill="none" fill-rule="evenodd">
        <g id="00_01_00_Synth_User_Profile" transform="translate(-1286.000000, -29.000000)">
            <g id="header">
                <g id="profile-section" transform="translate(1020.000000, 20.000000)">
                    <g id="icons" transform="translate(194.000000, 0.000000)">
                        <g id="medium" transform="translate(64.000000, 0.000000)">
                            <rect id="Rectangle-2-Copy-3" fill="#EFF3F6" opacity="0" x="0" y="0" width="32" height="32"></rect>
                            <path d="M9.89729225,11.6519694 C9.91717103,11.4509572 9.84227176,11.2522789 9.69561158,11.11699 L8.20168067,9.27513228 L8.20168067,9 L12.8403361,9 L16.4257703,17.047619 L19.5779646,9 L24,9 L24,9.27513228 L22.7226891,10.5285126 C22.6125709,10.6144185 22.5579466,10.7556108 22.5807657,10.8953557 L22.5807657,20.1046444 C22.5579466,20.2443893 22.6125709,20.3855815 22.7226891,20.4714874 L23.9701214,21.7248678 L23.9701214,22 L17.6956116,22 L17.6956116,21.7248678 L18.9878619,20.4409171 C19.1148459,20.3109935 19.1148459,20.2727807 19.1148459,20.0740741 L19.1148459,12.6302175 L15.5219421,21.9694297 L15.0364146,21.9694297 L10.853408,12.6302175 L10.853408,18.8894768 C10.8185316,19.1526336 10.9039291,19.417575 11.0849673,19.6078778 L12.7656396,21.6942975 L12.7656396,21.9694297 L8,21.9694297 L8,21.6942975 L9.68067227,19.6078778 C9.86039232,19.4172595 9.94081024,19.1505606 9.89729225,18.8894768 L9.89729225,11.6519694 Z" id="Shape" fill="#3E3F58" fill-rule="nonzero"></path>
                        </g>
                    </g>
                </g>
            </g>
        </g>
    </g>
</svg>